Coordinates
version=1
nRows=10
nColumns=40
inDegrees=yes

Units are S.I. units (second, meters, Newtons, ...)
Angles are in degrees.

endheader
time	pelvis_tilt	pelvis_list	pelvis_rotation	pelvis_tx	pelvis_ty	pelvis_tz	hip_flexion_r	hip_adduction_r	hip_rotation_r	knee_angle_r	knee_angle_r_beta	ankle_angle_r	subtalar_angle_r	mtp_angle_r	hip_flexion_l	hip_adduction_l	hip_rotation_l	knee_angle_l	knee_angle_l_beta	ankle_angle_l	subtalar_angle_l	mtp_angle_l	lumbar_extension	lumbar_bending	lumbar_rotation	arm_flex_r	arm_add_r	arm_rot_r	elbow_flex_r	pro_sup_r	wrist_flex_r	wrist_dev_r	arm_flex_l	arm_add_l	arm_rot_l	elbow_flex_l	pro_sup_l	wrist_flex_l	wrist_dev_l
     37.85000000	     -5.33960077	     -3.97222483	     -0.03516771	      0.89018829	      0.93003721	      0.43173632	     31.98047308	     -4.59748120	     -6.03363920	     66.49293253	     66.49293253	      2.18341896	    -19.13384443	     10.98142519	     16.82399094	     -3.64106492	     -3.62243697	     22.24344863	     22.24344863	     13.13676314	    -11.16397456	      1.42031328	    -10.77634055	      4.75331420	      2.63172689	      5.37574458	    -13.61205980	      1.60297707	     27.53690999	     46.50431211	      0.00000000	      0.00000000	      4.18303545	    -14.25279400	     -8.85661399	     66.17652496	     46.68216789	      0.00000000	      0.00000000
     37.86278571	     -5.55487858	     -4.06140887	     -0.41010579	      0.88846369	      0.93038119	      0.43209134	     33.20498290	     -4.30179782	     -5.92982068	     64.84989234	     64.84989234	      2.40908427	    -19.03102438	     11.03161825	     16.48840214	     -3.79899799	     -3.87658953	     21.96373561	     21.96373561	     13.30699383	    -11.20239352	      1.41881896	    -10.73833810	      4.95179934	      2.21461687	      4.42485174	    -13.78408050	      1.57883493	     27.09310115	     46.51563044	      0.00000000	      0.00000000	      4.46588138	    -14.63044155	     -9.05887924	     66.52247940	     46.70594502	      0.00000000	      0.00000000
     37.87557143	     -5.63227389	     -4.22427433	     -0.84591162	      0.88693628	      0.93110741	      0.43246553	     34.05750318	     -3.86180347	     -5.81383157	     62.81289388	     62.81289388	      2.43227377	    -18.93492578	     10.92885348	     15.75236683	     -4.03378414	     -4.21326053	     21.23874047	     21.23874047	     13.45929237	    -11.02358580	      1.41521534	    -10.92137589	      5.20248342	      2.53079891	      3.12965450	    -14.13628962	      1.47008159	     26.21457784	     46.54743843	      0.00000000	      0.00000000	      4.68078301	    -14.44876775	     -9.52240379	     68.39396039	     46.78040081	      0.00000000	      0.00000000
     37.88835714	     -5.76641420	     -4.29188762	     -1.25769345	      0.88543393	      0.93150047	      0.43288965	     34.83551027	     -3.53939772	     -5.72802352	     60.53905602	     60.53905602	      2.18140241	    -18.79127513	      9.89608192	     15.19933817	     -4.17779818	     -4.60086991	     20.72817775	     20.72817775	     13.51442119	    -10.92382322	      1.10738965	    -11.06951135	      5.31305460	      2.03066253	      2.30685274	    -14.24070574	      0.94633131	     25.68200956	     46.59571232	      0.00000000	      0.00000000	      3.96848652	    -14.67616700	    -10.57692102	     71.36524973	     46.93247256	      0.00000000	      0.00000000
     37.90114286	     -5.87395403	     -4.41211506	     -1.64943789	      0.88402974	      0.93195608	      0.43336763	     35.42642147	     -3.11300618	     -5.63437089	     57.97123764	     57.97123764	      2.19995216	    -18.50800951	      9.80074342	     14.60573982	     -4.34783366	     -4.85592188	     20.19831573	     20.19831573	     13.67343122	    -10.89644846	      1.12331555	    -11.15446342	      5.53178208	      1.90777670	      1.30451821	    -14.51531203	      0.84392951	     25.24669832	     46.61142369	      0.00000000	      0.00000000	      4.21228874	    -14.78810414	    -10.91194109	     72.16686616	     46.97670210	      0.00000000	      0.00000000
     37.91392857	     -5.90127867	     -4.41982414	     -2.08723174	      0.88275862	      0.93237846	      0.43393820	     35.77057286	     -2.79330276	     -5.49965447	     55.06145620	     55.06145620	      1.90270581	    -18.09127174	      8.58356692	     13.89665443	     -4.41063137	     -5.25830222	     19.63055909	     19.63055909	     13.76294599	    -10.81865324	      1.00295455	    -11.41369727	      5.57200377	      1.98834811	      0.23319087	    -14.74453212	      0.49349062	     24.91857269	     46.63908333	      0.00000000	      0.00000000	      4.21817060	    -14.73489803	    -11.56653057	     74.24671418	     47.07774224	      0.00000000	      0.00000000
     37.92671429	     -6.03123123	     -4.48436759	     -2.46367253	      0.88156773	      0.93252537	      0.43449016	     35.92614538	     -2.51296264	     -5.60785089	     51.58877309	     51.58877309	      0.90184778	    -17.66870972	      4.95267646	     13.36222812	     -4.51347400	     -5.50367888	     19.16363509	     19.16363509	     13.80945849	    -10.87547879	      0.66342724	    -11.48894226	      5.70379057	      1.41842922	     -0.38618329	    -14.83879818	     -0.38490032	     24.89639519	     46.69017496	      0.00000000	      0.00000000	      3.67554983	    -14.84031866	    -12.48844977	     76.29254014	     47.23259246	      0.00000000	      0.00000000
     37.93950000	     -6.21708773	     -4.52716171	     -2.84982837	      0.88044680	      0.93250417	      0.43523857	     36.12481206	     -2.18135869	     -5.63147967	     48.07791214	     48.07791214	      1.11184695	    -16.59874663	      4.91268434	     12.91801331	     -4.60788729	     -5.77261494	     18.76745304	     18.76745304	     13.98670647	    -10.91552179	      0.67473799	    -11.47379333	      5.84599814	      1.39271063	     -1.19799444	    -15.04680621	     -0.45067177	     24.55630925	     46.70109951	      0.00000000	      0.00000000	      3.97116832	    -14.89433338	    -12.61033921	     76.88738031	     47.25847337	      0.00000000	      0.00000000
     37.95228571	     -6.31589661	     -4.50608165	     -3.23042390	      0.87947695	      0.93247710	      0.43598467	     36.03212223	     -1.97112929	     -5.78955610	     44.22140833	     44.22140833	      1.29604574	    -15.11793837	      4.61662458	     12.39272101	     -4.62701646	     -6.07709651	     18.41287855	     18.41287855	     14.17499446	    -10.93533186	      0.65064533	    -11.51113375	      5.94466082	      1.42936633	     -1.96074526	    -15.23107222	     -0.55430874	     24.31626276	     46.71103965	      0.00000000	      0.00000000	      4.23809087	    -14.85609702	    -12.69409675	     77.77624065	     47.28729191	      0.00000000	      0.00000000
     37.96507143	     -6.38971450	     -4.45225606	     -3.59365991	      0.87872136	      0.93229291	      0.43695282	     35.53388515	     -1.87966923	     -6.32156247	     39.71061421	     39.71061421	      0.22628510	    -13.52266729	      0.07795521	     11.77943876	     -4.61886999	     -6.38653817	     17.95671553	     17.95671553	     14.31103174	    -10.89261314	      0.45370017	    -11.70030417	      5.82511676	      1.34463044	     -2.78516885	    -15.30594893	     -1.46078859	     24.83120374	     46.73971363	      0.00000000	      0.00000000	      3.81026993	    -14.90397482	    -12.80923207	     80.37644035	     47.38757972	      0.00000000	      0.00000000
